Coordinates
version=1
nRows=11
nColumns=40
inDegrees=yes

Units are S.I. units (second, meters, Newtons, ...)
If the header above contains a line with 'inDegrees', this indicates whether rotational values are in degrees (yes) or radians (no).

endheader
time	pelvis_tilt	pelvis_list	pelvis_rotation	pelvis_tx	pelvis_ty	pelvis_tz	hip_flexion_r	hip_adduction_r	hip_rotation_r	knee_angle_r	knee_angle_r_beta	ankle_angle_r	subtalar_angle_r	mtp_angle_r	hip_flexion_l	hip_adduction_l	hip_rotation_l	knee_angle_l	knee_angle_l_beta	ankle_angle_l	subtalar_angle_l	mtp_angle_l	lumbar_extension	lumbar_bending	lumbar_rotation	arm_flex_r	arm_add_r	arm_rot_r	elbow_flex_r	pro_sup_r	wrist_flex_r	wrist_dev_r	arm_flex_l	arm_add_l	arm_rot_l	elbow_flex_l	pro_sup_l	wrist_flex_l	wrist_dev_l
      2.04000000	    -13.34518749	     -2.67379483	     -0.19351489	      0.16055304	      0.58401008	     -1.21546645	     79.43761468	    -45.20488233	     -3.02889687	     99.63889208	      1.73902673	     25.25463216	     11.15431844	      0.00000000	     87.45210024	    -46.04024848	      4.66396444	    100.87429593	      1.76058859	     25.57104707	     13.66323048	      0.00000000	    -22.37297426	      4.18209408	     -3.60193890	     44.99992434	    -14.99999999	     44.99992434	     75.00017585	     45.00000026	      0.00000000	      0.00000000	     44.99992434	    -14.99999999	     44.99992434	     75.00017585	     45.00000026	      0.00000000	      0.00000000
      2.04500000	    -13.77497311	     -2.64471688	     -0.24213350	      0.16059029	      0.58785132	     -1.21510562	     79.16684327	    -44.94980339	     -3.59192332	     98.92301258	      1.72653228	     25.10487822	     10.97660916	      0.00000000	     87.08792803	    -45.92665472	      4.06163980	    100.13206716	      1.74763426	     25.37760604	     13.51447995	      0.00000000	    -21.50828244	      4.14560091	     -3.59783147	     44.99992434	    -14.99999999	     44.99992434	     75.00017585	     45.00000026	      0.00000000	      0.00000000	     44.99992434	    -14.99999999	     44.99992434	     75.00017585	     45.00000026	      0.00000000	      0.00000000
      2.05000000	    -13.44970636	     -2.51300288	     -0.33011386	      0.16098522	      0.59423139	     -1.21460483	     77.91837345	    -44.67634966	     -4.24855043	     98.00858117	      1.71057244	     24.67330141	     10.27013158	      0.00000000	     85.43185350	    -46.02140904	      2.89359401	     99.18478626	      1.73110109	     25.06030629	     13.02671286	      0.00000000	    -21.71836451	      3.96574514	     -3.51705252	     44.99992434	    -14.99999999	     44.99992434	     75.00017585	     45.00000026	      0.00000000	      0.00000000	     44.99992434	    -14.99999999	     44.99992434	     75.00017585	     45.00000026	      0.00000000	      0.00000000
      2.05500000	    -13.80871331	     -2.48320004	     -0.38076617	      0.16111593	      0.59833098	     -1.21424973	     77.55313818	    -44.39579441	     -4.79399194	     97.26451819	      1.69758609	     24.38090107	      9.98203139	      0.00000000	     84.96564059	    -45.93179679	      2.23370744	     98.42113206	      1.71777281	     24.78686461	     12.74419351	      0.00000000	    -20.90718799	      3.92441666	     -3.50781375	     44.99992434	    -14.99999999	     44.99992434	     75.00017585	     45.00000026	      0.00000000	      0.00000000	     44.99992434	    -14.99999999	     44.99992434	     75.00017585	     45.00000026	      0.00000000	      0.00000000
      2.06000000	    -14.33149033	     -2.45352334	     -0.43681898	      0.16108589	      0.60200634	     -1.21382194	     77.43021017	    -44.15283901	     -5.36873518	     96.56250202	      1.68533359	     24.38152944	      9.87849703	      0.00000000	     84.70841733	    -45.76184792	      1.69332723	     97.63096967	      1.70398187	     24.70777224	     12.68238658	      0.00000000	    -20.22013891	      3.87337869	     -3.49019859	     44.99992434	    -14.99999999	     44.99992434	     75.00017585	     45.00000026	      0.00000000	      0.00000000	     44.99992434	    -14.99999999	     44.99992434	     75.00017585	     45.00000026	      0.00000000	      0.00000000
      2.06500000	    -14.75241270	     -2.42925128	     -0.47901938	      0.16119483	      0.60600129	     -1.21350969	     77.11847369	    -43.85764554	     -5.89441301	     95.77748993	      1.67163255	     24.25201673	      9.69101677	      0.00000000	     84.31370178	    -45.60550159	      1.10537101	     96.84400610	      1.69024677	     24.52786959	     12.53287905	      0.00000000	    -19.30358806	      3.83349610	     -3.48227742	     44.99992434	    -14.99999999	     44.99992434	     75.00017585	     45.00000026	      0.00000000	      0.00000000	     44.99992434	    -14.99999999	     44.99992434	     75.00017585	     45.00000026	      0.00000000	      0.00000000
      2.07000000	    -14.17127295	     -2.26223058	     -0.61700501	      0.16183410	      0.61329423	     -1.21291607	     75.55908473	    -43.52137436	     -6.52288342	     94.74619929	      1.65363313	     23.76900481	      8.92679955	      0.00000000	     82.18692556	    -45.76155114	     -0.26487232	     95.78384148	      1.67174340	     24.19481228	     12.05277888	      0.00000000	    -19.84550794	      3.59805099	     -3.33082622	     44.99992434	    -14.99999999	     44.99992434	     75.00017585	     45.00000026	      0.00000000	      0.00000000	     44.99992434	    -14.99999999	     44.99992434	     75.00017585	     45.00000026	      0.00000000	      0.00000000
      2.07500000	    -14.47909099	     -2.21625674	     -0.69259025	      0.16194284	      0.61771066	     -1.21252640	     75.15303607	    -43.19716353	     -7.04043570	     93.92718489	      1.63933863	     23.45191557	      8.57023282	      0.00000000	     81.59450209	    -45.63495704	     -0.94786003	     94.94856789	      1.65716513	     23.90966874	     11.71557948	      0.00000000	    -19.19414310	      3.52667395	     -3.28994429	     44.99992434	    -14.99999999	     44.99992434	     75.00017585	     45.00000026	      0.00000000	      0.00000000	     44.99992434	    -14.99999999	     44.99992434	     75.00017585	     45.00000026	      0.00000000	      0.00000000
      2.08000000	    -14.99070977	     -2.19765173	     -0.73190926	      0.16212500	      0.62144437	     -1.21212332	     74.98372063	    -42.94030610	     -7.58464863	     93.20500505	      1.62673422	     23.45261978	      8.47533291	      0.00000000	     81.33327094	    -45.47396120	     -1.50127394	     94.13445692	      1.64295621	     23.82791305	     11.65927005	      0.00000000	    -18.39966122	      3.49072242	     -3.27926101	     44.99992434	    -14.99999999	     44.99992434	     75.00017585	     45.00000026	      0.00000000	      0.00000000	     44.99992434	    -14.99999999	     44.99992434	     75.00017585	     45.00000026	      0.00000000	      0.00000000
      2.08500000	    -15.41531823	     -2.17757362	     -0.77576386	      0.16227207	      0.62549893	     -1.21182431	     74.68069725	    -42.62050594	     -8.08522875	     92.38238940	      1.61237687	     23.32707584	      8.30235547	      0.00000000	     80.94405251	    -45.28445322	     -2.06018872	     93.31424817	      1.62864087	     23.64344345	     11.52144120	      0.00000000	    -17.46762215	      3.45660629	     -3.27112642	     44.99992434	    -14.99999999	     44.99992434	     75.00017585	     45.00000026	      0.00000000	      0.00000000	     44.99992434	    -14.99999999	     44.99992434	     75.00017585	     45.00000026	      0.00000000	      0.00000000
      2.09000000	    -14.70806341	     -2.00526738	     -0.95962122	      0.16310552	      0.63323757	     -1.21114811	     72.97225806	    -42.21769645	     -8.66572663	     91.25850956	      1.59276146	     22.78689861	      7.60560400	      0.00000000	     78.58439551	    -45.46006051	     -3.53195973	     92.16426128	      1.60856981	     23.25662046	     11.13718665	      0.00000000	    -18.16238192	      3.20152720	     -3.05713296	     44.99992434	    -14.99999999	     44.99992434	     75.00017585	     45.00000026	      0.00000000	      0.00000000	     44.99992434	    -14.99999999	     44.99992434	     75.00017585	     45.00000026	      0.00000000	      0.00000000
